<svg width="66" height="70" viewBox="0 0 66 70" fill="none" xmlns="http://www.w3.org/2000/svg">
<mask id="path-1-inside-1_1_1676" fill="white">
<path d="M-0.000197232 52.5C3.85215 59.1725 9.79856 64.3873 16.9168 67.3358C24.035 70.2843 31.9272 70.8016 39.3694 68.8074C46.8115 66.8133 53.3877 62.4192 58.0781 56.3067C62.7684 50.1941 65.3107 42.7047 65.3107 35C65.3107 27.2953 62.7684 19.8059 58.0781 13.6934C53.3877 7.58083 46.8115 3.18675 39.3694 1.19262C31.9272 -0.801498 24.035 -0.284215 16.9168 2.66424C9.79856 5.6127 3.85215 10.8276 -0.000196539 17.5L2.23458 18.7903C5.8029 12.6098 11.3109 7.77939 17.9043 5.04832C24.4977 2.31724 31.808 1.8381 38.7015 3.6852C45.5949 5.53229 51.6863 9.60241 56.0308 15.2643C60.3753 20.9262 62.7302 27.8634 62.7302 35C62.7302 42.1367 60.3753 49.0739 56.0308 54.7358C51.6863 60.3976 45.5949 64.4678 38.7015 66.3149C31.808 68.162 24.4977 67.6828 17.9043 64.9517C11.3109 62.2207 5.8029 57.3903 2.23459 51.2098L-0.000197232 52.5Z"/>
</mask>
<path d="M-0.000197232 52.5C3.85215 59.1725 9.79856 64.3873 16.9168 67.3358C24.035 70.2843 31.9272 70.8016 39.3694 68.8074C46.8115 66.8133 53.3877 62.4192 58.0781 56.3067C62.7684 50.1941 65.3107 42.7047 65.3107 35C65.3107 27.2953 62.7684 19.8059 58.0781 13.6934C53.3877 7.58083 46.8115 3.18675 39.3694 1.19262C31.9272 -0.801498 24.035 -0.284215 16.9168 2.66424C9.79856 5.6127 3.85215 10.8276 -0.000196539 17.5L2.23458 18.7903C5.8029 12.6098 11.3109 7.77939 17.9043 5.04832C24.4977 2.31724 31.808 1.8381 38.7015 3.6852C45.5949 5.53229 51.6863 9.60241 56.0308 15.2643C60.3753 20.9262 62.7302 27.8634 62.7302 35C62.7302 42.1367 60.3753 49.0739 56.0308 54.7358C51.6863 60.3976 45.5949 64.4678 38.7015 66.3149C31.808 68.162 24.4977 67.6828 17.9043 64.9517C11.3109 62.2207 5.8029 57.3903 2.23459 51.2098L-0.000197232 52.5Z" stroke="#F4C22F" stroke-width="4" mask="url(#path-1-inside-1_1_1676)"/>
</svg>
